<svg xmlns="http://www.w3.org/2000/svg" viewBox="0 0 75 75">
  <path fill="#84cf2f" d="M73.289,74.985 L1.711,74.985 C0.774,74.985 0.015,74.225 0.015,73.289 L0.015,1.711 C0.015,0.775 0.774,0.015 1.711,0.015 L73.289,0.015 C74.226,0.015 74.985,0.775 74.985,1.711 L74.985,73.289 C74.985,74.225 74.226,74.985 73.289,74.985 ZM71.593,3.407 L3.407,3.407 L3.407,71.593 L71.593,71.593 L71.593,3.407 ZM22.235,37.500 C22.235,32.481 24.670,28.020 28.421,25.236 C28.455,25.206 28.490,25.177 28.527,25.150 C28.561,25.125 28.597,25.103 28.632,25.082 C31.134,23.290 34.196,22.234 37.500,22.234 C40.804,22.234 43.866,23.290 46.368,25.082 C46.403,25.103 46.439,25.125 46.473,25.150 C46.510,25.177 46.545,25.207 46.579,25.236 C50.330,28.020 52.765,32.481 52.765,37.500 C52.765,45.917 45.917,52.765 37.500,52.765 C29.083,52.765 22.235,45.917 22.235,37.500 ZM42.588,37.500 C42.588,34.694 40.306,32.411 37.500,32.411 C34.694,32.411 32.412,34.694 32.412,37.500 C32.412,40.306 34.694,42.588 37.500,42.588 C40.306,42.588 42.588,40.306 42.588,37.500 ZM29.225,28.997 C27.008,31.155 25.627,34.169 25.627,37.500 C25.627,38.188 25.689,38.861 25.802,39.518 L29.074,38.454 C29.039,38.141 29.019,37.823 29.019,37.500 C29.019,35.297 29.864,33.288 31.246,31.778 L29.225,28.997 ZM30.125,41.680 L26.851,42.743 C28.552,46.183 31.869,48.684 35.804,49.250 L35.804,45.810 C33.372,45.314 31.317,43.773 30.125,41.680 ZM37.500,25.627 C35.503,25.627 33.621,26.125 31.967,26.999 L33.990,29.783 C35.060,29.294 36.248,29.019 37.500,29.019 C38.752,29.019 39.940,29.294 41.010,29.783 L43.033,26.999 C41.379,26.125 39.497,25.627 37.500,25.627 ZM49.198,39.518 C49.311,38.861 49.373,38.188 49.373,37.500 C49.373,34.169 47.992,31.155 45.775,28.997 L43.754,31.779 C45.136,33.288 45.981,35.297 45.981,37.500 C45.981,37.823 45.961,38.141 45.926,38.454 L49.198,39.518 ZM39.196,49.250 C43.131,48.684 46.448,46.183 48.149,42.743 L44.875,41.679 C43.684,43.773 41.628,45.314 39.196,45.810 L39.196,49.250 ZM8.496,15.620 L8.496,10.192 C8.496,9.255 9.255,8.496 10.192,8.496 L64.808,8.496 C65.745,8.496 66.504,9.255 66.504,10.192 L66.504,20.369 C66.504,21.305 65.745,22.065 64.808,22.065 C63.871,22.065 63.112,21.305 63.112,20.369 L63.112,11.888 L11.888,11.888 L11.888,15.620 C13.480,16.286 14.602,17.860 14.602,19.691 L14.602,28.171 C14.602,30.002 13.480,31.576 11.888,32.242 L11.888,42.758 C13.480,43.425 14.602,44.998 14.602,46.829 L14.602,55.310 C14.602,57.140 13.480,58.714 11.888,59.380 L11.888,63.112 L63.112,63.112 L63.112,26.155 C63.112,25.218 63.871,24.458 64.808,24.458 C65.745,24.458 66.504,25.218 66.504,26.155 L66.504,64.808 C66.504,65.745 65.745,66.504 64.808,66.504 L10.192,66.504 C9.255,66.504 8.496,65.745 8.496,64.808 L8.496,59.380 C6.904,58.714 5.782,57.140 5.782,55.309 L5.782,46.829 C5.782,44.998 6.904,43.424 8.496,42.758 L8.496,32.241 C6.904,31.576 5.782,30.002 5.782,28.171 L5.782,19.690 C5.782,17.859 6.904,16.286 8.496,15.620 ZM9.174,55.310 C9.174,55.871 9.631,56.327 10.192,56.327 C10.753,56.327 11.210,55.871 11.210,55.310 L11.210,46.829 C11.210,46.268 10.753,45.811 10.192,45.811 C9.631,45.811 9.174,46.268 9.174,46.829 L9.174,55.310 ZM9.174,28.171 C9.174,28.732 9.631,29.189 10.192,29.189 C10.753,29.189 11.210,28.732 11.210,28.171 L11.210,19.690 C11.210,19.129 10.753,18.673 10.192,18.673 C9.631,18.673 9.174,19.129 9.174,19.690 L9.174,28.171 Z" class="cls-1"/>
</svg>
