<svg xmlns="http://www.w3.org/2000/svg" viewBox="0 0 13 16">
  <path fill="#fff" d="M12.893 6.71c.06-.376.098-.788.107-1.25-.004-1.98-.967-2.68-1.152-3.01.273-1.5-.046-2.183-.194-2.417-.545-.19-1.9.492-2.638.973-1.206-.347-3.753-.313-4.71.09C2.546-.147 1.613.043 1.613.043s-.603 1.064-.16 2.62C.873 3.39.44 3.905.44 5.27c0 .325.02.634.056.93.5 2.586 2.58 3.7 4.625 3.893-.305.23-.674.666-.725 1.17-.387.246-1.164.327-1.77.14-.846-.263-1.17-1.914-2.44-1.68-.273.052-.22.23.02.382.385.247.75.553 1.03 1.21.215.504.67 1.403 2.102 1.403.568 0 .967-.066.967-.066s.01 1.284.01 1.785c0 .576-.79.738-.79 1.014 0 .11.262.124.472.124.416 0 1.28-.34 1.28-.94 0-.476.008-2.075.008-2.355 0-.613.333-.808.333-.808s.04 3.268-.08 3.706c-.142.515-.4.442-.4.67 0 .343 1.04.084 1.384-.664.267-.584.148-3.788.148-3.788l.278-.006s.003 1.467-.007 2.138c-.01.694-.084 1.572.335 1.986.276.273 1.118.75 1.118.314 0-.254-.59-.463-.59-1.15v-3.16c.36 0 .433 1.04.433 1.04l.13 1.93s-.087.704.772.998c.303.104.952.133.982-.043.03-.175-.783-.435-.79-.98-.005-.33.014-.527.014-1.97 0-1.444-.197-1.978-.883-2.403 1.99-.2 4.06-1.076 4.43-3.377z"/>
</svg>
