<svg xmlns="http://www.w3.org/2000/svg" viewBox="0 0 50 50">
	<path d="M43.961,32.289 C40.373,35.552 35.487,37.804 30.129,38.678 C28.950,44.618 23.704,48.996 17.589,48.996 C17.131,48.996 16.719,48.720 16.544,48.296 C16.369,47.871 16.466,47.383 16.789,47.058 C18.989,44.850 20.096,41.765 19.832,38.672 C14.488,37.794 9.617,35.544 6.037,32.287 C2.152,28.753 0.012,24.228 0.012,19.548 C0.012,14.270 2.650,9.327 7.441,5.631 C12.144,2.002 18.379,0.004 25.000,0.004 C31.620,0.004 37.856,2.002 42.558,5.631 C47.350,9.327 49.988,14.270 49.988,19.548 C49.988,24.229 47.848,28.754 43.961,32.289 ZM25.000,2.274 C12.468,2.274 2.273,10.023 2.273,19.548 C2.273,27.931 10.148,35.082 20.999,36.551 C21.491,36.618 21.883,37.000 21.963,37.492 C22.473,40.605 21.814,43.776 20.181,46.400 C24.270,45.352 27.463,41.886 28.026,37.531 C28.092,37.021 28.490,36.620 28.997,36.552 C39.850,35.084 47.727,27.933 47.727,19.548 C47.727,10.023 37.531,2.274 25.000,2.274 ZM33.287,26.819 L16.713,26.819 C16.089,26.819 15.582,26.310 15.582,25.683 C15.582,25.056 16.089,24.548 16.713,24.548 L33.287,24.548 C33.911,24.548 34.418,25.056 34.418,25.683 C34.418,26.310 33.911,26.819 33.287,26.819 ZM33.287,20.683 L16.713,20.683 C16.089,20.683 15.582,20.175 15.582,19.548 C15.582,18.921 16.089,18.413 16.713,18.413 L33.287,18.413 C33.911,18.413 34.418,18.921 34.418,19.548 C34.418,20.175 33.911,20.683 33.287,20.683 ZM33.287,14.545 L16.713,14.545 C16.089,14.545 15.582,14.037 15.582,13.410 C15.582,12.783 16.089,12.275 16.713,12.275 L33.287,12.275 C33.911,12.275 34.418,12.783 34.418,13.410 C34.418,14.037 33.911,14.545 33.287,14.545 Z" />
</svg>