<svg xmlns="http://www.w3.org/2000/svg" viewBox="0 0 16 10">
  <path fill="#fff" d="M14.176 4.435c.222.092.508.157.86.195.16.014.317.02.47.02.18 0 .346-.01.5-.03-.193.176-.44.328-.74.458s-.69.195-1.17.195c-.218.798-.624 1.516-1.22 2.147-.59.634-1.295 1.158-2.11 1.57-.817.413-1.714.7-2.695.863-.55.097-1.1.145-1.66.145-.41 0-.83-.03-1.25-.088-.97-.122-1.9-.41-2.8-.862C1.46 8.598.68 7.953 0 7.115c.38.33.824.587 1.33.765.506.178 1.032.27 1.58.27.544 0 1.08-.1 1.61-.29.524-.19.996-.49 1.417-.89-.08.01-.16.018-.24.018-.154 0-.293-.026-.42-.078-.2-.077-.338-.184-.413-.317-.077-.132-.077-.28 0-.438.076-.16.27-.3.584-.423-.106.01-.21.018-.31.018-.154 0-.296-.013-.427-.037-.22-.04-.41-.107-.57-.2-.16-.096-.3-.198-.4-.308-.1-.11-.19-.23-.27-.352.14-.117.29-.206.45-.266.17-.062.39-.1.66-.113-.61-.13-1.05-.323-1.31-.574-.26-.254-.42-.546-.49-.877.18-.027.36-.057.55-.092.18-.03.33-.04.44-.01-.52-.25-.88-.55-1.09-.88-.18-.29-.27-.58-.27-.84 0-.03 0-.06.01-.1.94.32 1.73.61 2.37.88.65.27 1.22.53 1.72.78.2.08.39.2.58.35l.63.53c.14-.34.29-.68.46-1.03.18-.34.36-.66.56-.98.198-.31.418-.59.665-.85.25-.26.53-.47.84-.64-.01.15-.09.3-.24.44.18-.15.377-.27.586-.36.21-.09.43-.15.663-.18-.027.15-.135.27-.33.367-.193.093-.36.166-.51.217.054-.01.16-.046.315-.1.157-.056.324-.107.5-.15.18-.047.337-.08.48-.09.144-.01.23.01.255.08.04.076.02.143-.07.2-.083.054-.19.1-.313.14-.12.04-.247.07-.368.098-.13.025-.21.045-.25.055l-.37.13c.07-.01.146-.01.22-.01.305 0 .606.05.9.14.36.11.69.28.99.507.296.226.56.493.786.8.223.304.39.63.5.98l.04.155c.01.053.023.11.04.175.13.04.29.066.48.076.183.01.37 0 .552-.03.18-.03.35-.06.496-.11.15-.04.27-.09.357-.12-.104.253-.31.465-.613.64-.307.17-.685.266-1.137.293z"/>
</svg>
