<svg xmlns="http://www.w3.org/2000/svg" viewBox="0 0 24 24">
  <path fill="#d6d6d6" d="M2.700,2.697 C4.441,0.958 6.756,-0.000 9.218,-0.000 C14.301,0.000 18.436,4.131 18.436,9.209 C18.436,11.487 17.613,13.639 16.108,15.326 L17.653,16.870 L18.036,16.487 C18.138,16.385 18.276,16.328 18.420,16.328 C18.564,16.328 18.702,16.385 18.803,16.487 L23.864,21.543 C24.076,21.755 24.076,22.098 23.864,22.309 L22.331,23.841 C22.225,23.947 22.086,24.000 21.947,24.000 C21.809,24.000 21.670,23.947 21.564,23.841 L16.503,18.785 C16.291,18.574 16.291,18.231 16.503,18.019 L16.886,17.636 L15.341,16.093 C13.652,17.596 11.498,18.418 9.218,18.418 C4.135,18.418 0.000,14.287 -0.000,9.209 C0.000,6.749 0.959,4.437 2.700,2.697 ZM21.947,22.692 L22.714,21.926 L18.420,17.636 L18.037,18.019 C18.037,18.019 18.037,18.019 18.037,18.019 C18.036,18.019 18.036,18.019 18.036,18.019 L17.653,18.402 L21.947,22.692 ZM9.218,17.335 C11.391,17.335 13.433,16.489 14.969,14.955 C16.505,13.420 17.351,11.380 17.351,9.209 C17.351,4.728 13.703,1.084 9.218,1.084 C7.045,1.084 5.003,1.929 3.467,3.463 C1.931,4.998 1.084,7.039 1.084,9.209 C1.084,13.689 4.733,17.335 9.218,17.335 Z" />
</svg>