<svg xmlns="http://www.w3.org/2000/svg" viewBox="0 0 25 15">
	<path d="M12.500,-0.000 C7.048,-0.000 2.322,3.048 -0.000,7.500 C2.322,11.952 7.048,15.000 12.500,15.000 C17.952,15.000 22.678,11.952 25.000,7.500 C22.678,3.048 17.952,-0.000 12.500,-0.000 ZM18.663,3.977 C20.132,4.877 21.377,6.081 22.312,7.500 C21.377,8.918 20.132,10.123 18.663,11.023 C16.818,12.153 14.686,12.750 12.500,12.750 C10.313,12.750 8.182,12.153 6.337,11.023 C4.868,10.123 3.623,8.918 2.688,7.500 C3.623,6.081 4.868,4.877 6.337,3.977 C6.432,3.919 6.529,3.862 6.626,3.806 C6.383,4.447 6.250,5.138 6.250,5.859 C6.250,9.173 9.048,11.859 12.500,11.859 C15.952,11.859 18.750,9.173 18.750,5.859 C18.750,5.138 18.617,4.447 18.374,3.806 C18.471,3.862 18.568,3.919 18.663,3.977 ZM12.500,5.109 C12.500,6.352 11.451,7.359 10.156,7.359 C8.862,7.359 7.812,6.352 7.812,5.109 C7.812,3.867 8.862,2.859 10.156,2.859 C11.451,2.859 12.500,3.867 12.500,5.109 Z"/>
</svg>