<svg xmlns="http://www.w3.org/2000/svg" viewBox="0 0 50 50">
	<path d="M5.617,5.619 C9.240,1.996 14.056,-0.000 19.179,-0.000 C29.755,-0.000 38.358,8.607 38.358,19.186 C38.358,23.932 36.646,28.415 33.515,31.930 L36.730,35.146 L37.527,34.348 C37.739,34.136 38.026,34.017 38.325,34.017 C38.624,34.017 38.911,34.136 39.123,34.348 L49.653,44.881 C50.094,45.322 50.094,46.037 49.653,46.478 L46.462,49.669 C46.242,49.890 45.953,50.000 45.664,50.000 C45.376,50.000 45.087,49.890 44.867,49.669 L34.336,39.136 C33.896,38.695 33.896,37.981 34.336,37.539 L35.134,36.742 L31.919,33.526 C28.405,36.658 23.924,38.371 19.179,38.371 C8.604,38.371 0.000,29.764 -0.000,19.186 C0.000,14.061 1.995,9.243 5.617,5.619 ZM45.664,47.275 L47.260,45.679 L38.325,36.742 L37.528,37.539 C37.528,37.539 37.528,37.539 37.527,37.540 C37.527,37.540 37.527,37.540 37.526,37.541 L36.730,38.338 L45.664,47.275 ZM19.179,36.114 C23.699,36.114 27.949,34.353 31.145,31.155 C34.341,27.958 36.102,23.707 36.102,19.186 C36.102,9.851 28.510,2.258 19.179,2.258 C14.659,2.258 10.409,4.018 7.213,7.215 C4.017,10.413 2.256,14.664 2.256,19.186 C2.256,28.520 9.848,36.114 19.179,36.114 Z" />
</svg>