<svg xmlns="http://www.w3.org/2000/svg" viewBox="0 0 75 75">
  <path fill="#f84823" d="M72.965,21.615 C71.145,26.640 68.094,31.527 64.594,35.023 L59.315,40.297 L56.328,59.400 C56.272,59.755 56.105,60.084 55.851,60.338 L43.619,72.557 C43.295,72.880 42.860,73.053 42.418,73.053 C42.211,73.053 42.003,73.015 41.802,72.937 C41.175,72.693 40.751,72.101 40.723,71.429 L40.215,59.376 L37.191,62.397 C36.528,63.059 35.453,63.059 34.790,62.397 L33.025,60.634 L24.945,65.900 C24.273,66.339 23.385,66.246 22.817,65.679 L9.258,52.134 C8.690,51.567 8.598,50.680 9.037,50.009 L14.308,41.937 L12.543,40.174 C11.880,39.511 11.880,38.438 12.543,37.775 L15.567,34.755 L3.502,34.247 C2.829,34.219 2.236,33.796 1.992,33.169 C1.747,32.542 1.897,31.830 2.373,31.354 L14.604,19.136 C14.859,18.882 15.187,18.715 15.543,18.659 L34.667,15.675 L39.946,10.402 C43.446,6.905 48.338,3.858 53.368,2.040 C59.860,-0.307 66.561,-0.640 72.748,1.075 C73.322,1.234 73.771,1.682 73.930,2.256 C75.647,8.436 75.313,15.131 72.965,21.615 ZM12.633,50.709 L24.244,62.307 L30.572,58.183 L24.867,52.484 L24.197,53.154 C23.534,53.817 22.459,53.817 21.796,53.154 C21.133,52.492 21.133,51.418 21.796,50.756 L22.467,50.086 L16.762,44.387 L12.633,50.709 ZM70.901,4.101 C58.288,1.089 47.071,8.081 42.347,12.800 L36.694,18.446 C36.682,18.459 36.669,18.472 36.656,18.484 L30.774,24.360 L28.374,21.961 L30.594,19.743 L16.614,21.925 L7.508,31.021 L18.829,31.497 L23.572,26.758 C24.235,26.096 25.310,26.096 25.973,26.758 C26.636,27.420 26.636,28.495 25.973,29.157 L20.707,34.417 C20.704,34.420 20.701,34.423 20.699,34.425 L16.145,38.974 L17.659,40.487 C17.677,40.504 17.694,40.521 17.711,40.539 L24.867,47.688 L45.399,27.178 C46.062,26.516 47.137,26.516 47.800,27.178 C48.463,27.840 48.463,28.914 47.800,29.576 L27.268,50.086 L34.424,57.235 C34.442,57.252 34.460,57.270 34.477,57.287 L35.991,58.800 L40.544,54.251 C40.547,54.248 40.550,54.245 40.553,54.242 L45.819,48.982 C46.482,48.320 47.557,48.320 48.220,48.982 C48.883,49.644 48.883,50.718 48.220,51.380 L43.476,56.119 L43.952,67.428 L53.058,58.331 L55.242,44.365 L53.022,46.584 C52.358,47.246 51.284,47.246 50.621,46.584 C49.958,45.921 49.958,44.847 50.621,44.185 L56.521,38.292 C56.521,38.291 56.522,38.290 56.523,38.290 L62.193,32.625 C66.917,27.906 73.916,16.701 70.901,4.101 ZM52.088,22.894 C50.582,21.390 49.753,19.391 49.753,17.264 C49.753,15.137 50.582,13.138 52.088,11.634 C55.196,8.529 60.252,8.529 63.360,11.634 C64.865,13.138 65.695,15.137 65.695,17.264 C65.695,19.391 64.866,21.390 63.360,22.894 C61.806,24.447 59.765,25.222 57.724,25.222 C55.683,25.222 53.641,24.447 52.088,22.894 ZM62.300,17.264 C62.300,16.043 61.824,14.895 60.959,14.032 C60.067,13.141 58.895,12.695 57.724,12.695 C56.552,12.695 55.380,13.141 54.488,14.032 C53.624,14.895 53.148,16.043 53.148,17.264 C53.148,18.485 53.624,19.633 54.488,20.496 C56.273,22.278 59.175,22.279 60.959,20.496 C61.824,19.633 62.300,18.485 62.300,17.264 ZM9.362,54.637 C10.025,55.299 10.025,56.373 9.362,57.035 L2.883,63.507 C2.552,63.839 2.117,64.004 1.683,64.004 C1.249,64.004 0.814,63.839 0.483,63.507 C-0.180,62.845 -0.180,61.771 0.483,61.109 L6.962,54.637 C7.625,53.975 8.699,53.975 9.362,54.637 ZM12.316,59.985 C12.979,59.323 14.053,59.323 14.716,59.985 C15.379,60.647 15.379,61.721 14.716,62.383 L5.628,71.462 C5.297,71.793 4.862,71.959 4.428,71.959 C3.993,71.959 3.559,71.793 3.227,71.462 C2.564,70.800 2.564,69.726 3.227,69.064 L12.316,59.985 ZM17.911,65.575 C18.574,64.913 19.649,64.913 20.312,65.575 C20.975,66.237 20.975,67.311 20.312,67.973 L13.833,74.446 C13.502,74.777 13.067,74.942 12.633,74.942 C12.198,74.942 11.764,74.777 11.432,74.446 C10.769,73.783 10.769,72.710 11.432,72.047 L17.911,65.575 Z" />
</svg>