<svg xmlns="http://www.w3.org/2000/svg" xmlns:xlink="http://www.w3.org/1999/xlink" preserveAspectRatio="xMidYMid" width="24" height="24" viewBox="0 0 24 24"><path fill="#ffffff" d="M21.871,12.269 C20.489,13.650 18.653,14.375 16.791,14.375 C15.826,14.375 14.854,14.180 13.934,13.781 L12.451,15.262 L12.451,17.840 C12.451,18.140 12.208,18.382 11.909,18.382 L9.647,18.382 L9.647,20.642 C9.647,20.942 9.404,21.185 9.105,21.185 L6.844,21.185 L6.844,23.445 C6.844,23.589 6.786,23.726 6.684,23.828 C6.583,23.930 6.445,23.987 6.301,23.987 C6.301,23.987 6.300,23.987 6.300,23.987 L0.535,23.980 C0.532,23.980 0.529,23.979 0.527,23.980 C0.526,23.980 0.526,23.980 0.526,23.980 L0.526,23.980 C0.390,23.978 0.255,23.925 0.152,23.821 C0.050,23.719 -0.003,23.587 -0.007,23.453 L-0.007,23.453 C-0.007,23.453 -0.007,23.453 -0.007,23.452 C-0.007,23.447 -0.007,23.442 -0.007,23.437 L-0.001,20.466 C-0.001,20.323 0.057,20.185 0.158,20.083 L10.199,10.048 C9.028,7.355 9.614,4.213 11.712,2.116 C13.068,0.760 14.872,0.013 16.791,0.013 C18.710,0.013 20.514,0.760 21.871,2.116 C24.672,4.915 24.672,9.470 21.871,12.269 ZM21.103,2.883 C19.952,1.732 18.420,1.098 16.791,1.098 C15.163,1.098 13.631,1.732 12.479,2.883 C10.619,4.742 10.159,7.571 11.337,9.921 C11.441,10.129 11.400,10.382 11.235,10.547 L1.084,20.692 L1.081,22.126 L3.666,19.543 C3.878,19.331 4.221,19.331 4.433,19.543 C4.645,19.755 4.645,20.098 4.433,20.310 L1.844,22.897 L5.758,22.902 L5.758,20.642 C5.758,20.343 6.001,20.100 6.301,20.100 L8.562,20.100 L8.562,17.840 C8.562,17.540 8.805,17.298 9.105,17.298 L11.366,17.298 L11.366,15.038 C11.366,14.894 11.423,14.756 11.525,14.654 L13.435,12.745 C13.600,12.580 13.852,12.539 14.061,12.644 C16.413,13.820 19.243,13.362 21.103,11.502 C22.255,10.351 22.890,8.820 22.890,7.193 C22.890,5.565 22.255,4.034 21.103,2.883 ZM18.257,8.276 C17.604,8.276 16.951,8.027 16.453,7.530 C15.459,6.536 15.459,4.919 16.453,3.925 C17.448,2.931 19.066,2.931 20.061,3.925 C21.055,4.919 21.055,6.536 20.061,7.530 C19.563,8.027 18.910,8.276 18.257,8.276 ZM19.293,4.692 C18.722,4.121 17.792,4.121 17.221,4.692 C16.649,5.263 16.649,6.192 17.221,6.763 C17.792,7.334 18.722,7.334 19.293,6.763 C19.864,6.192 19.864,5.263 19.293,4.692 ZM5.968,18.776 C5.862,18.882 5.723,18.935 5.584,18.935 C5.446,18.935 5.307,18.882 5.201,18.776 C4.989,18.564 4.989,18.221 5.201,18.009 L11.712,11.502 C11.923,11.290 12.267,11.290 12.479,11.502 C12.691,11.714 12.691,12.057 12.479,12.269 L5.968,18.776 Z"/></svg>