<svg xmlns="http://www.w3.org/2000/svg" viewBox="0 0 75 75">
  <path fill="#43a5ce" d="M73.289,56.703 L54.836,56.703 C53.900,56.703 53.140,55.943 53.140,55.006 L53.140,44.475 C53.140,43.538 53.900,42.779 54.836,42.779 L73.289,42.779 C74.225,42.779 74.985,43.538 74.985,44.475 L74.985,55.006 C74.985,55.943 74.225,56.703 73.289,56.703 ZM71.593,46.171 L56.532,46.171 L56.532,53.310 L71.593,53.310 L71.593,46.171 ZM64.063,41.082 C63.126,41.082 62.367,40.323 62.367,39.386 L62.367,30.040 L12.634,30.040 L12.634,39.386 C12.634,40.323 11.874,41.082 10.938,41.082 C10.001,41.082 9.241,40.323 9.241,39.386 L9.241,28.344 C9.241,27.407 10.001,26.648 10.938,26.648 L35.804,26.648 L35.804,17.302 C35.804,16.365 36.563,15.605 37.500,15.605 C38.437,15.605 39.196,16.365 39.196,17.302 L39.196,26.648 L64.063,26.648 C64.999,26.648 65.759,27.407 65.759,28.344 L65.759,39.386 C65.759,40.323 64.999,41.082 64.063,41.082 ZM46.726,13.909 L28.274,13.909 C27.337,13.909 26.578,13.150 26.578,12.213 L26.578,1.682 C26.578,0.745 27.337,-0.015 28.274,-0.015 L46.726,-0.015 C47.663,-0.015 48.422,0.745 48.422,1.682 L48.422,12.213 C48.422,13.150 47.663,13.909 46.726,13.909 ZM45.030,3.378 L29.970,3.378 L29.970,10.517 L45.030,10.517 L45.030,3.378 ZM21.860,44.475 L21.860,55.006 C21.860,55.943 21.100,56.703 20.164,56.703 L1.711,56.703 C0.775,56.703 0.015,55.943 0.015,55.006 L0.015,44.475 C0.015,43.538 0.775,42.779 1.711,42.779 L20.164,42.779 C21.100,42.779 21.860,43.538 21.860,44.475 ZM18.468,46.171 L3.407,46.171 L3.407,53.310 L18.468,53.310 L18.468,46.171 ZM35.804,39.386 L35.804,33.348 C35.804,32.411 36.563,31.652 37.500,31.652 C38.437,31.652 39.196,32.411 39.196,33.348 L39.196,39.386 C39.196,40.323 38.437,41.082 37.500,41.082 C36.563,41.082 35.804,40.323 35.804,39.386 ZM28.274,42.779 L46.726,42.779 C47.663,42.779 48.423,43.538 48.422,44.475 L48.422,55.006 C48.422,55.943 47.663,56.703 46.726,56.703 L28.274,56.703 C27.337,56.703 26.578,55.943 26.578,55.006 L26.578,44.475 C26.578,43.538 27.337,42.779 28.274,42.779 ZM29.970,53.310 L45.030,53.310 L45.030,46.171 L29.970,46.171 L29.970,53.310 Z" transform="translate(0 9.16)" />
</svg>