<?xml version="1.0" encoding="utf-8"?>
<svg version="1.1" baseProfile="tiny" id="Layer_1" xmlns="http://www.w3.org/2000/svg" xmlns:xlink="http://www.w3.org/1999/xlink" x="0px" y="0px" viewBox="0 0 165 38" xml:space="preserve" fill="#ffffff">
<g>
	<path fill-rule="evenodd" d="M20.8,9.6c-1.6-4.6,3.1-9.4,7-9.6c2.3,1.2,4.3,4.3,4.2,8.5c-0.3,5.2-4.1,9.7-8.2,13.8
		C23.6,17.3,22.5,14.1,20.8,9.6L20.8,9.6z"/>
	<path fill-rule="evenodd" d="M11.6,34.2c-0.7-5.1,1.5-9.4,3.6-12.1c1-1.2,1.8-2.4,2.3-3.4c1.1,0.5,4.1,2,5.7,4.4
		C23,26.8,20.3,33.3,11.6,34.2L11.6,34.2z"/>
	<path fill-rule="evenodd" d="M8.3,14.9C1.4,13-0.3,7.1,0,3.2c6.7-2.7,13.9,0.1,18.1,5.7c2.9,4,4.7,9,5.1,13.5
		c-2-2.6-4.5-4.1-7.7-5.2C13.3,16.3,11.2,15.8,8.3,14.9L8.3,14.9z"/>
	<path d="M71.4,8.3V7.5c0-0.2-0.1-0.4-0.5-0.4c-0.4-0.1-1.3-0.1-2.1-0.1c-2.2,0-3.6,0.8-3.6,3.3v14.1c0,0.3,0.2,0.5,0.5,0.5h1.1
		c0.3,0,0.5-0.2,0.5-0.5V13.5h3.7c0.3,0,0.4-0.2,0.4-0.4v-0.8c0-0.3-0.2-0.4-0.4-0.4h-3.7v-1.6c0-1.4,0.3-1.6,1.6-1.6h2.1
		C71.2,8.6,71.4,8.5,71.4,8.3L71.4,8.3z M78.9,13.1V12c0-0.3-0.2-0.4-0.5-0.4c-2,0-3.6,0.1-4.9,0.7c-0.3,0.1-0.4,0.3-0.4,0.5v11.4
		c0,0.3,0.2,0.5,0.4,0.5h1.2c0.3,0,0.4-0.2,0.4-0.5V13.7c0.9-0.2,1.7-0.2,3.3-0.2C78.9,13.5,78.9,13.4,78.9,13.1L78.9,13.1z
		 M89.2,23.9V12.8c0-0.3-0.1-0.4-0.5-0.5c-1.2-0.3-2.9-0.5-4.3-0.5c-3.5,0-5.1,2.3-5.1,5.8v1.6c0,3.5,1.6,5.8,5.1,5.8
		c1.4,0,3.1-0.2,4.3-0.5C89.1,24.3,89.2,24.2,89.2,23.9L89.2,23.9z M87.1,23c-0.7,0.1-1.8,0.2-2.7,0.2c-2.3,0-3.1-1.6-3.1-4.1v-1.6
		c0-2.5,0.7-4.1,3.1-4.1c1,0,2.1,0.1,2.7,0.2V23L87.1,23z M106.3,24.3v-8.5c0-2.4-1.4-4.1-4.2-4.1h-0.5c-1.4,0-2.3,0.2-3.1,0.8
		c-0.7-0.7-1.6-0.8-3.1-0.8h-0.5c-2.8,0-4.2,1.7-4.2,4.1v8.5c0,0.3,0.2,0.5,0.4,0.5h1.2c0.3,0,0.4-0.2,0.4-0.5v-8.5
		c0-2,0.9-2.3,2.1-2.3h0.5c1.5,0,2,0.3,2,1.6v9.2c0,0.3,0.2,0.5,0.4,0.5h1.2c0.3,0,0.4-0.2,0.4-0.5v-9.2c0-1.3,0.5-1.6,2-1.6h0.5
		c1.2,0,2.1,0.3,2.1,2.3v8.5c0,0.3,0.2,0.5,0.4,0.5h1.2C106.1,24.8,106.3,24.6,106.3,24.3L106.3,24.3z M117.8,18.5v-1.3
		c0-3.3-1.7-5.5-5.2-5.5c-3.4,0-5.2,2.1-5.2,5.5v2.1c0,4.4,2.6,5.6,5.3,5.6c1.6,0,2.9-0.1,4.2-0.4c0.4-0.1,0.5-0.2,0.5-0.5v-0.8
		c0-0.2-0.2-0.3-0.4-0.3c0,0-0.1,0-0.1,0c-1.1,0.2-2.8,0.3-4.2,0.3c-2.2,0-3.3-1-3.3-3.8V19h7.9C117.6,19,117.8,18.8,117.8,18.5
		L117.8,18.5z M115.7,17.4h-6.2v-0.2c0-2.5,1.1-3.7,3.1-3.7c2.1,0,3.1,1,3.1,3.7V17.4L115.7,17.4z M134.9,19.7v-7.4
		c0-0.3-0.2-0.5-0.5-0.5h-1.1c-0.3,0-0.5,0.2-0.5,0.5v7.4c0,2.6-1,3.5-2.9,3.5c-0.6,0-1.2-0.1-1.9-0.3V12.3c0-0.3-0.2-0.5-0.5-0.5
		h-1.2c-0.3,0-0.5,0.2-0.5,0.5v10.6c-0.7,0.2-1.3,0.3-1.9,0.3c-2,0-2.9-0.9-2.9-3.5v-7.4c0-0.3-0.2-0.5-0.5-0.5h-1.1
		c-0.3,0-0.5,0.2-0.5,0.5v7.4c0,4.2,2.3,5.3,4.7,5.3c1.2,0,2.1-0.2,3.1-0.6c1,0.4,1.9,0.6,3.1,0.6C132.6,25,134.9,23.8,134.9,19.7
		L134.9,19.7z M147,19.2v-1.8c0-3.5-1.8-5.7-5.2-5.7c-3.5,0-5.2,2.3-5.2,5.7v1.8c0,3.5,1.8,5.7,5.2,5.7C145.2,25,147,22.7,147,19.2
		L147,19.2z M144.9,19.2c0,2.4-1,3.9-3.2,3.9c-2.2,0-3.1-1.5-3.1-3.9v-1.8c0-2.4,1-3.9,3.1-3.9c2.2,0,3.2,1.5,3.2,3.9V19.2
		L144.9,19.2z M154.4,13.1V12c0-0.3-0.2-0.4-0.5-0.4c-2,0-3.6,0.1-4.9,0.7c-0.3,0.1-0.4,0.3-0.4,0.5v11.4c0,0.3,0.2,0.5,0.4,0.5h1.2
		c0.3,0,0.4-0.2,0.4-0.5V13.7c0.9-0.2,1.7-0.2,3.3-0.2C154.4,13.5,154.4,13.4,154.4,13.1L154.4,13.1z M165,24.5c0-0.1,0-0.2-0.1-0.2
		l-5.2-6.3l5.2-5.6c0.1-0.1,0.1-0.2,0.1-0.3c0-0.1-0.1-0.3-0.4-0.3H163c-0.2,0-0.3,0-0.5,0.2l-4.7,5.3V7.6c0-0.3-0.2-0.5-0.5-0.5
		h-1.1c-0.3,0-0.5,0.2-0.5,0.5v16.7c0,0.3,0.2,0.5,0.5,0.5h1.1c0.3,0,0.5-0.2,0.5-0.5v-5.6l4.7,5.8c0.2,0.2,0.3,0.3,0.5,0.3h1.7
		C164.9,24.8,165,24.6,165,24.5L165,24.5z"/>
	<path d="M61.8,24.3V9.4c0-0.3-0.2-0.5-0.5-0.5h-2.2c-0.3,0-0.5,0.2-0.5,0.5v14.9c0,0.3,0.2,0.5,0.5,0.5h2.2
		C61.6,24.8,61.8,24.5,61.8,24.3L61.8,24.3z"/>
	<path d="M56,24.3V9.4c0-0.3-0.2-0.5-0.5-0.5h-2.2c-0.3,0-0.5,0.2-0.5,0.5v14.9c0,0.3,0.2,0.5,0.5,0.5h2.2
		C55.8,24.8,56,24.5,56,24.3L56,24.3z M54.5,4.7c0.9,0,1.6,0.7,1.6,1.6c0,0.9-0.7,1.6-1.6,1.6c-0.9,0-1.6-0.7-1.6-1.6
		C52.9,5.4,53.6,4.7,54.5,4.7L54.5,4.7z M60.3,4.7c0.9,0,1.6,0.7,1.6,1.6c0,0.9-0.7,1.6-1.6,1.6c-0.9,0-1.6-0.7-1.6-1.6
		C58.6,5.4,59.4,4.7,60.3,4.7L60.3,4.7z"/>
	<path d="M50.4,24.7V9c-1.2,0-3.1,0.8-3.1,2.5v10.8c-0.7,0.1-1.7,0.2-2.3,0.2c-2,0-2.5-1.4-2.5-3.4v-7.7c-0.1-1.9-2.2-2.4-3.1-2.4
		v10.1c0,3.7,1.8,5.9,5.6,5.9c0.6,0,1.8-0.2,2.3-0.3v0.2c0.5,3.1-3.3,1.9-5.3,1.7c-1.5,0-2.5,1.2-2.8,2.6c0.9,0.3,3.7,0.6,5.7,0.8
		C48.5,30,50.4,28.1,50.4,24.7L50.4,24.7z"/>
</g>
<g>
	<path d="M69.8,37.9h-0.9v-5.7h-3.1v5.7h-0.9v-6.4h4.8V37.9z"/>
	<path d="M76.5,35.3c0,0.8-0.2,1.4-0.7,1.9c-0.5,0.5-1.1,0.8-1.9,0.8c-0.7,0-1.4-0.3-1.8-0.8c-0.5-0.5-0.7-1.2-0.7-1.9v-1.1
		c0-0.8,0.2-1.4,0.7-1.9s1.1-0.8,1.8-0.8c0.8,0,1.4,0.3,1.9,0.8c0.5,0.5,0.7,1.2,0.7,1.9V35.3z M75.6,34.1c0-0.6-0.2-1.1-0.5-1.4
		c-0.3-0.4-0.7-0.6-1.3-0.6c-0.5,0-0.9,0.2-1.2,0.6c-0.3,0.4-0.5,0.9-0.5,1.4v1.1c0,0.6,0.1,1.1,0.5,1.5s0.7,0.6,1.2,0.6
		c0.5,0,1-0.2,1.3-0.6c0.3-0.4,0.5-0.9,0.5-1.5V34.1z"/>
	<path d="M80.7,35.5h-2.6v-0.7h2.6V35.5z"/>
	<path d="M83.4,35.3v2.6h-0.9v-6.4H85c0.7,0,1.2,0.2,1.6,0.5c0.4,0.4,0.6,0.8,0.6,1.4c0,0.6-0.2,1-0.6,1.4c-0.4,0.3-0.9,0.5-1.6,0.5
		H83.4z M83.4,34.7H85c0.4,0,0.8-0.1,1-0.3c0.2-0.2,0.3-0.5,0.3-0.9s-0.1-0.7-0.3-0.9c-0.2-0.2-0.5-0.4-1-0.4h-1.6V34.7z"/>
	<path d="M90.4,34.5l0.3,0.8h0l1.5-3.8h1l-2.3,5.3c-0.2,0.4-0.4,0.6-0.6,0.8c-0.2,0.2-0.6,0.3-1,0.3c-0.2,0-0.4,0-0.5,0
		c-0.2,0-0.3-0.1-0.4-0.1l0.1-0.6c0.1,0,0.2,0.1,0.4,0.1c0.1,0,0.3,0,0.4,0c0.2,0,0.4-0.1,0.6-0.2c0.1-0.1,0.3-0.3,0.3-0.5l0.2-0.4
		l-2.1-4.8h1L90.4,34.5z"/>
	<path d="M99.1,35.9L99.1,35.9c0,0.6-0.2,1.1-0.6,1.5c-0.4,0.4-1,0.6-1.7,0.6c-0.7,0-1.3-0.3-1.8-0.8c-0.5-0.5-0.7-1.2-0.7-2v-1.1
		c0-0.8,0.2-1.4,0.7-2c0.5-0.5,1-0.8,1.8-0.8s1.3,0.2,1.7,0.6c0.4,0.4,0.6,0.9,0.6,1.5l0,0h-0.8c0-0.4-0.1-0.8-0.4-1.1
		s-0.6-0.4-1.1-0.4c-0.5,0-0.9,0.2-1.2,0.6s-0.4,0.9-0.4,1.4v1.1c0,0.6,0.1,1.1,0.4,1.5s0.7,0.6,1.2,0.6c0.5,0,0.9-0.1,1.1-0.4
		c0.3-0.3,0.4-0.6,0.4-1.1H99.1z"/>
	<path d="M105.2,35.9L105.2,35.9c0,0.6-0.2,1.1-0.6,1.5c-0.4,0.4-1,0.6-1.7,0.6c-0.7,0-1.3-0.3-1.8-0.8c-0.5-0.5-0.7-1.2-0.7-2v-1.1
		c0-0.8,0.2-1.4,0.7-2c0.5-0.5,1-0.8,1.8-0.8s1.3,0.2,1.7,0.6c0.4,0.4,0.6,0.9,0.6,1.5l0,0h-0.8c0-0.4-0.1-0.8-0.4-1.1
		s-0.6-0.4-1.1-0.4c-0.5,0-0.9,0.2-1.2,0.6s-0.4,0.9-0.4,1.4v1.1c0,0.6,0.1,1.1,0.4,1.5s0.7,0.6,1.2,0.6c0.5,0,0.9-0.1,1.1-0.4
		c0.3-0.3,0.4-0.6,0.4-1.1H105.2z"/>
	<path d="M108.1,35h-0.6v2.9h-0.9v-6.4h0.9v2.8h0.5l2.4-2.8h1l0,0l-2.6,3l2.8,3.3l0,0h-1.1L108.1,35z"/>
	<path d="M116.8,31.5h0.9v6.4h-0.9V33l0,0l-3.1,4.9h-0.9v-6.4h0.9v4.9l0,0L116.8,31.5z"/>
</g>
</svg>
