<svg xmlns="http://www.w3.org/2000/svg" viewBox="0 0 27 27">
	<path d="M14.979,5.199 C14.324,4.544 13.262,4.544 12.608,5.199 L12.015,5.792 L3.716,14.097 L3.718,14.099 L3.457,14.361 C3.457,14.361 2.623,15.200 0.740,21.276 C0.727,21.319 0.714,21.361 0.700,21.404 C0.667,21.513 0.633,21.624 0.599,21.736 C0.568,21.835 0.538,21.936 0.507,22.038 C0.481,22.123 0.455,22.208 0.429,22.296 C0.369,22.495 0.309,22.698 0.247,22.907 C0.112,23.365 -0.219,24.400 0.155,24.775 C0.515,25.135 1.561,24.818 2.019,24.683 C2.226,24.621 2.428,24.561 2.625,24.501 C2.716,24.474 2.805,24.447 2.894,24.419 C2.990,24.390 3.085,24.361 3.179,24.333 C3.297,24.296 3.413,24.261 3.527,24.225 C3.561,24.214 3.595,24.204 3.629,24.193 C9.412,22.393 10.450,21.549 10.537,21.471 C10.537,21.471 10.537,21.471 10.538,21.470 C10.541,21.467 10.544,21.465 10.544,21.465 L10.812,21.197 L10.830,21.214 L19.129,12.910 L19.128,12.910 L19.721,12.317 C20.376,11.662 20.376,10.600 19.721,9.945 L14.979,5.199 ZM9.589,20.392 C9.582,20.397 9.572,20.403 9.562,20.410 C9.556,20.414 9.549,20.418 9.542,20.422 C9.535,20.427 9.527,20.431 9.519,20.436 C9.512,20.441 9.505,20.445 9.497,20.450 C9.221,20.615 8.410,21.041 6.444,21.753 C6.214,21.836 5.964,21.924 5.702,22.015 L2.906,19.218 C2.998,18.954 3.086,18.702 3.169,18.470 C3.879,16.497 4.305,15.684 4.470,15.409 C4.474,15.402 4.477,15.396 4.481,15.390 C4.487,15.381 4.492,15.372 4.497,15.364 C4.501,15.357 4.505,15.351 4.509,15.345 C4.516,15.335 4.522,15.325 4.527,15.317 L4.731,15.113 L9.798,20.182 L9.589,20.392 ZM24.463,5.199 L19.721,0.454 C19.066,-0.201 18.005,-0.201 17.350,0.454 L16.164,1.640 C15.510,2.295 15.510,3.358 16.164,4.013 L20.907,8.758 C21.561,9.413 22.623,9.413 23.278,8.758 L24.463,7.572 C25.118,6.917 25.118,5.854 24.463,5.199 Z" />
</svg>