<svg xmlns="http://www.w3.org/2000/svg" viewBox="0 0 50 50">
	<path d="M15.624,40.632 L46.888,40.632 L46.888,46.885 L15.624,46.885 L15.624,40.632 ZM15.624,21.874 L46.888,21.874 L46.888,28.126 L15.624,28.126 L15.624,21.874 ZM15.624,3.115 L46.888,3.115 L46.888,9.368 L15.624,9.368 L15.624,3.115 ZM6.245,-0.011 L6.245,12.494 L3.118,12.494 L3.118,3.115 L-0.008,3.115 L-0.008,-0.011 L6.245,-0.011 ZM3.118,25.684 L3.118,28.126 L9.371,28.126 L9.371,31.253 L-0.008,31.253 L-0.008,24.121 L6.245,21.190 L6.245,18.747 L-0.008,18.747 L-0.008,15.621 L9.371,15.621 L9.371,22.753 L3.118,25.684 ZM9.371,34.379 L9.371,50.011 L-0.008,50.011 L-0.008,46.885 L6.245,46.885 L6.245,43.758 L-0.008,43.758 L-0.008,40.632 L6.245,40.632 L6.245,37.506 L-0.008,37.506 L-0.008,34.379 L9.371,34.379 Z" />
</svg>